<?xml version="1.0" standalone="no"?>
<!DOCTYPE svg PUBLIC "-//W3C//DTD SVG 20010904//EN"
 "http://www.w3.org/TR/2001/REC-SVG-20010904/DTD/svg10.dtd">
<svg version="1.0" xmlns="http://www.w3.org/2000/svg"
 width="168.000000pt" height="168.000000pt" viewBox="0 0 168.000000 168.000000"
 preserveAspectRatio="xMidYMid meet">
<metadata>
Created by potrace 1.14, written by Peter Selinger 2001-2017
</metadata>
<g transform="translate(0.000000,168.000000) scale(0.100000,-0.100000)"
fill="#000000" stroke="none">
<path d="M0 840 l0 -840 840 0 840 0 0 840 0 840 -840 0 -840 0 0 -840z m715
710 c-5 -8 -11 -8 -17 -2 -6 6 -7 16 -3 22 5 8 11 8 17 2 6 -6 7 -16 3 -22z
m-137 -8 c2 -7 -3 -12 -12 -12 -9 0 -16 7 -16 16 0 17 22 14 28 -4z m237 9 c7
-12 -12 -24 -25 -16 -11 7 -4 25 10 25 5 0 11 -4 15 -9z m103 -17 c7 -2 10 -8
7 -14 -4 -7 -12 -7 -25 0 -11 6 -34 8 -52 5 -31 -6 -32 -5 -13 9 18 13 41 13
83 0z m97 -8 c19 -8 35 -17 35 -20 0 -6 -28 -1 -36 7 -4 4 -16 7 -26 7 -10 0
-18 5 -18 10 0 13 4 13 45 -4z m111 -26 c8 0 14 -3 14 -7 0 -5 -18 -8 -39 -8
-31 0 -37 3 -29 13 6 7 18 10 25 7 8 -3 21 -5 29 -5z m-646 -21 c0 -5 -7 -9
-15 -9 -15 0 -20 12 -9 23 8 8 24 -1 24 -14z m714 -14 c6 -17 4 -18 -18 -9
-20 8 -21 24 -2 24 8 0 16 -7 20 -15z m70 -11 c25 -10 19 -26 -6 -19 -31 10
-47 25 -26 25 9 0 23 -3 32 -6z m-280 -12 c2 -4 1 -14 -3 -21 -12 -18 -52 -5
-44 15 5 15 38 19 47 6z m-630 -33 c-8 -14 -34 -11 -34 4 0 8 3 17 7 20 9 9
34 -13 27 -24z m176 17 c0 -8 -5 -18 -11 -22 -14 -8 -33 11 -25 25 10 16 36
13 36 -3z m720 -26 c0 -11 -7 -20 -15 -20 -15 0 -21 21 -8 33 12 13 23 7 23
-13z m-380 4 c0 -8 -19 -13 -24 -6 -3 5 1 9 9 9 8 0 15 -2 15 -3z m468 -13 c3
-8 -1 -12 -9 -9 -7 2 -15 10 -17 17 -3 8 1 12 9 9 7 -2 15 -10 17 -17z m-556
-15 c4 -17 1 -23 -11 -22 -20 4 -27 26 -10 37 8 5 15 9 15 9 1 0 4 -11 6 -24z
m-547 -46 c-3 -5 -10 -10 -16 -10 -5 0 -9 5 -9 10 0 6 7 10 16 10 8 0 12 -4 9
-10z m330 -20 c-5 -8 -11 -8 -17 -2 -6 6 -7 16 -3 22 5 8 11 8 17 2 6 -6 7
-16 3 -22z m395 16 c0 -17 -27 -29 -35 -16 -4 6 -3 15 0 20 9 15 35 12 35 -4z
m135 -4 c-3 -3 -11 0 -18 7 -9 10 -8 11 6 5 10 -3 15 -9 12 -12z m279 -7 c4
-13 2 -14 -14 -5 -23 13 -26 20 -6 20 8 0 16 -7 20 -15z m-1174 -20 c0 -8 -7
-15 -15 -15 -16 0 -20 12 -8 23 11 12 23 8 23 -8z m470 -10 c0 -8 -7 -15 -15
-15 -8 0 -15 7 -15 15 0 8 7 15 15 15 8 0 15 -7 15 -15z m30 -52 c-1 -45 -3
-54 -11 -40 -9 16 -4 97 7 97 2 0 4 -26 4 -57z m351 24 c-10 -9 -11 -8 -5 6 3
10 9 15 12 12 3 -3 0 -11 -7 -18z m-445 -29 c20 -38 16 -196 -5 -222 -20 -24
-58 -20 -76 8 -17 26 -23 163 -9 202 20 55 65 61 90 12z m628 17 c33 -34 33
-199 0 -236 -48 -53 -89 0 -89 116 0 61 4 88 18 108 19 30 48 35 71 12z m249
-11 c-6 -17 -23 -9 -23 11 0 8 6 12 14 9 8 -3 12 -12 9 -20z m-1050 -14 c-20
-23 -33 -26 -33 -6 0 13 13 20 42 25 4 0 0 -8 -9 -19z m-218 -11 c0 -7 -8 -15
-17 -17 -18 -3 -25 18 -11 32 10 10 28 1 28 -15z m820 -9 c-5 -8 -11 -8 -17
-2 -6 6 -7 16 -3 22 5 8 11 8 17 2 6 -6 7 -16 3 -22z m-192 14 c9 -9 -4 -34
-18 -34 -14 0 -27 25 -18 34 4 3 12 6 18 6 6 0 14 -3 18 -6z m144 -71 c-2 -16
-4 -3 -4 27 0 30 2 43 4 28 2 -16 2 -40 0 -55z m-317 53 c0 -3 -4 -8 -10 -11
-5 -3 -10 -1 -10 4 0 6 5 11 10 11 6 0 10 -2 10 -4z m650 -21 c0 -8 -7 -15
-15 -15 -16 0 -20 12 -8 23 11 12 23 8 23 -8z m-1196 -16 c-3 -5 -10 -7 -15
-3 -5 3 -7 10 -3 15 3 5 10 7 15 3 5 -3 7 -10 3 -15z m1412 -16 c-4 -4 -11 -1
-16 7 -16 25 -11 35 7 17 9 -9 13 -20 9 -24z m-726 5 c0 -13 -23 -5 -28 10 -2
7 2 10 12 6 9 -3 16 -11 16 -16z m124 -18 c-6 -5 -24 21 -24 34 0 6 6 1 14
-10 8 -10 12 -21 10 -24z m398 -5 c0 -5 -5 -11 -11 -13 -6 -2 -11 4 -11 13 0
9 5 15 11 13 6 -2 11 -8 11 -13z m-1162 -5 c0 -5 -4 -10 -10 -10 -5 0 -10 5
-10 10 0 6 5 10 10 10 6 0 10 -4 10 -10z m590 -15 c-7 -9 -6 -16 4 -24 10 -9
16 -8 26 4 12 15 35 11 25 -5 -5 -9 15 -29 29 -28 14 1 106 -94 100 -104 -3
-5 -12 -4 -19 2 -10 8 -15 8 -21 -1 -4 -7 -3 -9 3 -6 6 4 16 0 23 -9 15 -17 2
-36 -26 -40 -12 -2 -14 5 -11 31 3 19 2 37 -2 40 -3 4 -6 10 -7 13 -2 18 -17
42 -26 42 -5 0 -6 -6 -1 -12 4 -7 8 -23 9 -36 1 -21 0 -21 -17 -6 -10 9 -16
21 -13 25 3 5 -7 14 -21 19 -14 5 -24 14 -20 19 3 5 0 13 -6 17 -8 5 -9 3 -4
-7 7 -12 6 -12 -6 -1 -8 7 -14 18 -14 25 0 7 -6 12 -14 12 -8 0 -15 8 -17 17
-1 10 3 16 9 15 7 -1 11 4 9 11 -1 8 2 11 8 7 8 -5 8 -11 0 -20z m130 14 c0 7
5 9 10 6 14 -9 -31 -44 -47 -38 -9 4 -10 10 -2 25 8 15 13 17 25 7 11 -9 14
-9 14 0z m-484 -20 c10 -17 -13 -36 -27 -22 -12 12 -4 33 11 33 5 0 12 -5 16
-11z m-286 -14 c0 -8 -7 -15 -15 -15 -8 0 -15 7 -15 15 0 8 7 15 15 15 8 0 15
-7 15 -15z m800 -5 c0 -5 -4 -10 -10 -10 -5 0 -10 5 -10 10 0 6 5 10 10 10 6
0 10 -4 10 -10z m140 0 c0 -5 -5 -10 -11 -10 -5 0 -7 5 -4 10 3 6 8 10 11 10
2 0 4 -4 4 -10z m-700 -4 c0 -3 -4 -8 -10 -11 -5 -3 -10 -1 -10 4 0 6 5 11 10
11 6 0 10 -2 10 -4z m134 -29 c5 -27 -8 -39 -17 -14 -4 12 3 50 9 45 1 -2 5
-16 8 -31z m-199 13 c3 -5 1 -10 -4 -10 -6 0 -11 5 -11 10 0 6 2 10 4 10 3 0
8 -4 11 -10z m441 -8 c-3 -3 -1 -11 5 -18 8 -9 5 -11 -11 -7 -27 7 -36 23 -19
33 14 9 35 2 25 -8z m285 -5 c-10 -9 -11 -8 -5 6 3 10 9 15 12 12 3 -3 0 -11
-7 -18z m521 8 c0 -5 -5 -11 -11 -13 -6 -2 -11 4 -11 13 0 9 5 15 11 13 6 -2
11 -8 11 -13z m-1192 -15 c0 -5 -4 -10 -10 -10 -5 0 -10 5 -10 10 0 6 5 10 10
10 6 0 10 -4 10 -10z m645 -26 c1 -13 -5 -19 -21 -19 -13 0 -20 5 -17 13 3 7
0 19 -7 26 -9 12 -7 13 16 7 17 -4 28 -14 29 -27z m606 13 c-1 -12 -15 -9 -19
4 -3 6 1 10 8 8 6 -3 11 -8 11 -12z m-1291 -7 c0 -5 -4 -10 -10 -10 -5 0 -10
5 -10 10 0 6 5 10 10 10 6 0 10 -4 10 -10z m90 -21 c0 -5 -4 -9 -10 -9 -5 0
-10 7 -10 16 0 8 5 12 10 9 6 -3 10 -10 10 -16z m890 7 c0 -8 -7 -16 -15 -20
-15 -5 -21 14 -8 27 11 12 23 8 23 -7z m176 -34 c-8 -7 -25 8 -37 31 -11 21
-10 21 15 -2 14 -14 24 -26 22 -29z m-1349 24 c0 -8 -6 -12 -14 -9 -7 3 -13 9
-13 14 0 5 6 9 13 9 8 0 14 -6 14 -14z m1281 -8 c-6 -18 -28 -21 -28 -4 0 9 7
16 16 16 9 0 14 -5 12 -12z m-590 -47 c-7 -12 -19 -16 -34 -13 -29 5 -32 32
-4 32 11 0 20 5 20 11 0 8 4 8 15 -1 11 -9 11 -16 3 -29z m-670 4 c-3 -3 -9 2
-12 12 -6 14 -5 15 5 6 7 -7 10 -15 7 -18z m109 -22 c-3 -10 -5 -2 -5 17 0 19
2 27 5 18 2 -10 2 -26 0 -35z m1363 -23 l-8 -35 -1 45 c-1 27 3 40 8 35 6 -6
6 -25 1 -45z m-1020 11 c0 -9 -9 -22 -20 -29 -11 -7 -19 -9 -18 -5 0 5 -2 16
-7 27 -5 11 -3 21 5 26 18 11 40 1 40 -19z m40 23 c0 -8 -19 -13 -24 -6 -3 5
1 9 9 9 8 0 15 -2 15 -3z m45 -32 c-3 -3 0 -11 6 -19 10 -11 15 -11 28 -1 14
11 14 11 3 -4 -14 -18 -6 -27 21 -23 14 3 15 0 8 -9 -6 -7 -8 -15 -5 -18 3 -3
1 -9 -4 -12 -5 -3 -28 11 -50 32 -37 34 -41 43 -33 81 1 2 8 -2 16 -9 9 -7 13
-15 10 -18z m745 -2 c0 -5 -5 -10 -11 -10 -5 0 -7 5 -4 10 3 6 8 10 11 10 2 0
4 -4 4 -10z m-1225 -20 c3 -5 1 -10 -4 -10 -6 0 -11 5 -11 10 0 6 2 10 4 10 3
0 8 -4 11 -10z m580 0 c3 -5 1 -10 -4 -10 -6 0 -11 5 -11 10 0 6 2 10 4 10 3
0 8 -4 11 -10z m749 2 c8 -13 -11 -35 -23 -28 -16 10 -14 36 3 36 8 0 17 -4
20 -8z m-684 -42 c-13 -24 -26 -26 -33 -6 -4 10 2 16 16 19 12 2 23 5 25 6 1
0 -2 -8 -8 -19z m-580 0 c0 -5 -7 -10 -15 -10 -8 0 -15 5 -15 10 0 6 7 10 15
10 8 0 15 -4 15 -10z m67 -46 c-3 -4 -14 -3 -24 0 -15 6 -15 8 -3 16 16 10 39
-4 27 -16z m218 6 c3 -6 -1 -7 -9 -4 -18 7 -21 14 -7 14 6 0 13 -4 16 -10z
m159 -5 c85 -26 194 -30 301 -10 53 9 99 14 102 11 13 -13 -15 -27 -97 -47
-67 -17 -102 -20 -167 -16 -84 6 -193 41 -201 65 -5 15 2 15 62 -3z m176 -6
c0 -5 -9 -9 -20 -9 -19 0 -26 11 -14 23 8 8 34 -3 34 -14z m743 8 c3 -8 1 -20
-4 -28 -6 -10 -9 -7 -9 14 0 29 5 35 13 14z m-1199 -6 c19 -7 18 -8 -4 -14
-25 -6 -40 -2 -40 14 0 11 17 11 44 0z m56 -7 c0 -8 -5 -12 -10 -9 -6 4 -8 11
-5 16 9 14 15 11 15 -7z m1008 9 c-10 -2 -26 -2 -35 0 -10 3 -2 5 17 5 19 0
27 -2 18 -5z m-258 -90 c0 -4 -11 4 -25 17 -14 13 -25 28 -25 33 0 6 11 -2 25
-17 14 -15 25 -30 25 -33z m-710 32 c0 -8 -7 -15 -15 -15 -8 0 -15 7 -15 15 0
8 7 15 15 15 8 0 15 -7 15 -15z m930 -6 c0 -5 -7 -9 -15 -9 -15 0 -20 12 -9
23 8 8 24 -1 24 -14z m-130 1 c0 -5 -7 -10 -15 -10 -8 0 -15 5 -15 10 0 6 7
10 15 10 8 0 15 -4 15 -10z m-633 -26 c-9 -9 -28 6 -21 18 4 6 10 6 17 -1 6
-6 8 -13 4 -17z m933 6 c0 -6 -8 -19 -18 -30 -17 -19 -18 -18 -16 8 3 34 2 32
19 32 8 0 15 -5 15 -10z m-850 -24 c0 -14 -4 -28 -10 -31 -6 -4 -10 7 -10 24
0 17 5 31 10 31 6 0 10 -11 10 -24z m755 -26 c0 -22 -29 -18 -33 3 -3 14 1 18
15 15 10 -2 18 -10 18 -18z m-951 -15 c-4 -8 -10 -15 -14 -15 -4 0 -10 7 -14
15 -4 10 1 15 14 15 13 0 18 -5 14 -15z m116 -3 c0 -13 -12 -22 -22 -16 -10 6
-1 24 13 24 5 0 9 -4 9 -8z m-60 -17 c0 -8 -4 -15 -10 -15 -5 0 -10 7 -10 15
0 8 5 15 10 15 6 0 10 -7 10 -15z m-10 -47 c0 -5 6 -8 14 -8 20 0 31 -19 18
-32 -11 -11 -38 13 -63 55 -9 16 -8 17 10 5 12 -7 21 -16 21 -20z m115 2 c3
-6 -1 -13 -10 -16 -19 -8 -30 0 -20 15 8 14 22 14 30 1z m640 0 c-3 -5 -21
-10 -40 -10 -19 0 -37 5 -40 10 -4 6 12 10 40 10 28 0 44 -4 40 -10z m195 -12
c0 -16 -3 -19 -11 -11 -6 6 -8 16 -5 22 11 17 16 13 16 -11z m-790 2 c0 -5 -5
-10 -11 -10 -5 0 -7 5 -4 10 3 6 8 10 11 10 2 0 4 -4 4 -10z m250 -16 c0 -8
-2 -14 -4 -14 -2 0 -11 -3 -20 -6 -11 -4 -16 0 -16 14 0 20 18 33 33 25 4 -2
7 -11 7 -19z m-290 -24 c0 -5 -9 -10 -19 -10 -11 0 -23 5 -26 10 -4 6 5 10 19
10 14 0 26 -4 26 -10z m140 -11 c0 -5 -9 -9 -20 -9 -22 0 -27 16 -7 23 15 5
27 -1 27 -14z m-62 2 c11 -7 10 -10 -3 -15 -19 -7 -35 0 -35 15 0 11 20 12 38
0z m119 3 c-3 -3 -12 -4 -19 -1 -8 3 -5 6 6 6 11 1 17 -2 13 -5z m333 -19 c0
-8 -4 -15 -9 -15 -13 0 -22 16 -14 24 11 11 23 6 23 -9z m290 1 c0 -8 -7 -16
-15 -20 -10 -4 -15 1 -15 14 0 11 7 20 15 20 8 0 15 -6 15 -14z m-112 -48 c-7
-19 -38 -22 -38 -4 0 10 9 16 21 16 12 0 19 -5 17 -12z m-468 -8 c0 -5 -4 -10
-9 -10 -6 0 -13 5 -16 10 -3 6 1 10 9 10 9 0 16 -4 16 -10z m240 -10 c0 -5 -2
-10 -4 -10 -3 0 -8 5 -11 10 -3 6 -1 10 4 10 6 0 11 -4 11 -10z m125 -12 c14
-6 25 -15 25 -20 0 -13 -13 -9 -40 12 -28 22 -23 25 15 8z m-445 -24 c0 -14
-21 -19 -33 -7 -9 9 13 34 24 27 5 -3 9 -12 9 -20z m296 -65 c10 -17 -13 -36
-27 -22 -12 12 -4 33 11 33 5 0 12 -5 16 -11z m-256 -116 c0 -20 -3 -24 -11
-16 -7 7 -9 19 -6 27 10 24 17 19 17 -11z m100 -71 c0 -15 -5 -34 -10 -42 -7
-11 -10 -2 -10 33 0 30 4 46 10 42 6 -3 10 -18 10 -33z m100 24 c0 -8 -4 -18
-10 -21 -5 -3 -10 3 -10 14 0 12 5 21 10 21 6 0 10 -6 10 -14z"/>
<path d="M555 1210 c3 -5 1 -10 -4 -10 -12 0 -16 -127 -5 -154 9 -23 31 -19
38 7 7 29 7 115 0 145 -4 12 -13 22 -21 22 -8 0 -11 -4 -8 -10z"/>
<path d="M1185 1207 c-3 -7 -5 -49 -3 -93 2 -62 6 -79 18 -79 22 0 35 75 24
132 -9 47 -29 67 -39 40z"/>
<path d="M785 1070 c-17 -19 -17 -19 3 -15 18 3 62 -30 55 -41 -2 -2 -2 -6 -2
-9 1 -3 2 -9 3 -14 0 -5 4 -12 8 -16 3 -4 5 0 4 9 -1 8 -5 19 -9 22 -4 4 -2
13 4 20 7 8 7 14 -1 19 -5 3 -10 3 -10 -1 0 -4 -9 1 -20 11 -11 10 -17 22 -14
26 9 16 -2 9 -21 -11z"/>
<path d="M895 969 c4 -6 10 -8 13 -5 3 3 12 0 21 -7 14 -11 14 -10 2 6 -14 18
-47 24 -36 6z"/>
</g>
</svg>
